#!OML:ASF X:\für Bonn\!DataBase\2005_08_11_Bastian_Final\c3d\Bastian.ASF
:FULLY-SPECIFIED
:DEGREES
263
root 21.6814 15.8935 -6.00282 554.967 -136.503 -160.895
lowerback 69.0826 -2.34715 12.2817
upperback 16.9493 3.81089 1.35317
thorax -1.1926 2.02258 -4.84865
lowerneck -5.3566 -10.914 1.99353
upperneck -29.9702 -11.3222 19.9203
head -7.21136 -8.24922 6.89459
rclavicle 1.04958e-013 -1.43125e-014
rhumerus 65.325 -2.29521 -40.3397
rradius 19.2974
rwrist -12.8842
rhand -42.7447 -10.8905
rfingers 7.12502
rthumb -15.6125 -40.2804
lclavicle 1.04958e-013 -1.43125e-014
lhumerus -11.6939 -28.8832 91.1894
lradius 46.1372
lwrist 31.1446
lhand -10.7463 -15.5332
lfingers 7.12502
lthumb 15.2649 13.8835
rfemur -79.1635 -33.6311 33.2171
rtibia 71.0916
rfoot -22.8708 -4.94793
rtoes 13.1575
lfemur -67.7422 -14.4729 -29.4279
ltibia 49.6906
lfoot -0.761617 -20.7944
ltoes -17.6759
264
root 21.6819 15.9248 -6.00043 554.762 -136.355 -161.179
lowerback 69.0314 -2.26362 12.2064
upperback 16.9754 3.81344 1.25047
thorax -1.16992 2.02837 -4.93951
lowerneck -5.51518 -10.9277 2.21764
upperneck -29.9082 -11.3725 19.8803
head -7.18254 -8.28512 6.83141
rclavicle 5.08889e-014 -8.90555e-014
rhumerus 64.8852 -1.6964 -39.9613
rradius 19.47
rwrist -13.1009
rhand -42.5072 -10.3097
rfingers 7.12502
rthumb -15.3837 -39.7174
lclavicle 5.08889e-014 -8.90555e-014
lhumerus -11.619 -29.0255 90.9879
lradius 45.8577
lwrist 31.1004
lhand -10.6572 -15.4486
lfingers 7.12502
lthumb 15.3507 13.9616
rfemur -78.3097 -33.5216 33.038
rtibia 70.6655
rfoot -22.7466 -4.96997
rtoes 13.1345
lfemur -67.1221 -14.3123 -29.265
ltibia 49.3623
lfoot -0.762289 -20.669
ltoes -17.9898
265
root 21.682 15.9581 -5.99785 554.486 -136.197 -161.418
lowerback 69.0311 -2.19045 12.1222
upperback 16.9817 3.8072 1.12742
thorax -1.16757 2.03102 -5.04503
lowerneck -5.76453 -10.9364 2.4561
upperneck -29.7681 -11.4316 19.8395
head -7.11202 -8.31745 6.75137
rclavicle 2.22639e-014 -3.33958e-014
rhumerus 64.3881 -1.07702 -39.6485
rradius 19.7096
rwrist -13.3741
rhand -42.3153 -9.68997
rfingers 7.12502
rthumb -15.1989 -39.1117
lclavicle 2.22639e-014 -3.33958e-014
lhumerus -11.5466 -29.1947 90.7706
lradius 45.5754
lwrist 31.0489
lhand -10.5446 -15.3226
lfingers 7.12502
lthumb 15.4592 14.0793
rfemur -77.3893 -33.4097 32.7634
rtibia 70.237
rfoot -22.6436 -4.97022
rtoes 13.2795
lfemur -66.4425 -14.1587 -29.1326
ltibia 49.0199
lfoot -0.753606 -20.5314
ltoes -18.1259
266
root 21.6821 15.9898 -5.99509 554.2 -136.036 -161.659
lowerback 69.0157 -2.08573 11.9949
upperback 16.9697 3.81242 1.03937
thorax -1.19385 2.02861 -5.09994
lowerneck -5.92505 -10.9519 2.66165
upperneck -29.6481 -11.4966 19.7885
head -7.06115 -8.35162 6.68142
rclavicle 4.13472e-014 -4.29375e-014
rhumerus 63.906 -0.376342 -39.3607
rradius 19.903
rwrist -13.5224
rhand -42.1364 -9.14759
rfingers 7.12502
rthumb -15.0266 -38.5823
lclavicle 4.13472e-014 -4.29375e-014
lhumerus -11.493 -29.3739 90.6154
lradius 45.2302
lwrist 31.0356
lhand -10.5574 -15.2732
lfingers 7.12502
lthumb 15.4468 14.1296
rfemur -76.4479 -33.2779 32.4758
rtibia 69.8022
rfoot -22.5088 -5.02544
rtoes 13.1623
lfemur -65.747 -13.9909 -29.0212
ltibia 48.6791
lfoot -0.769241 -20.4117
ltoes -18.4749
267
root 21.6816 16.022 -5.99176 553.889 -135.872 -161.883
lowerback 68.9927 -1.98088 11.8595
upperback 16.9464 3.81381 0.945935
thorax -1.23454 2.02368 -5.15691
lowerneck -6.05379 -10.955 2.8927
upperneck -29.5313 -11.5435 19.7218
head -7.0224 -8.37836 6.60576
rclavicle -1.59028e-014 4.13472e-014
rhumerus 63.3877 0.364249 -39.138
rradius 20.1394
rwrist -13.7216
rhand -41.9416 -8.71646
rfingers 7.12502
rthumb -14.8389 -38.1651
lclavicle -1.59028e-014 4.13472e-014
lhumerus -11.4446 -29.4675 90.4654
lradius 44.8636
lwrist 30.9496
lhand -10.5431 -15.2597
lfingers 7.12502
lthumb 15.4606 14.1421
rfemur -75.4874 -33.1534 32.1712
rtibia 69.3597
rfoot -22.3961 -5.06429
rtoes 13.2031
lfemur -65.0181 -13.8333 -28.9183
ltibia 48.3188
lfoot -0.735873 -20.2771
ltoes -18.557
268
root 21.681 16.0557 -5.98737 553.593 -135.722 -162.155
lowerback 68.9514 -1.88809 11.7517
upperback 16.9265 3.81763 0.86093
thorax -1.26917 2.02002 -5.21616
lowerneck -6.13267 -10.9658 3.16818
upperneck -29.4625 -11.6021 19.6156
head -7.01534 -8.41714 6.51976
rclavicle 5.725e-014 8.26944e-014
rhumerus 62.8681 1.14088 -38.9448
rradius 20.3663
rwrist -13.8452
rhand -41.7893 -8.379
rfingers 7.12502
rthumb -14.6922 -37.8384
lclavicle 5.725e-014 8.26944e-014
lhumerus -11.3668 -29.6008 90.3222
lradius 44.4635
lwrist 30.9332
lhand -10.5974 -15.2961
lfingers 7.12502
lthumb 15.4083 14.1097
rfemur -74.4711 -33.0217 31.8786
rtibia 68.9011
rfoot -22.2953 -5.12271
rtoes 13.1131
lfemur -64.2719 -13.6848 -28.7708
ltibia 47.9558
lfoot -0.725324 -20.1374
ltoes -18.6837
269
root 21.6806 16.091 -5.98308 553.274 -135.568 -162.418
lowerback 68.9198 -1.77567 11.6329
upperback 16.8797 3.84245 0.792092
thorax -1.33472 2.02022 -5.26111
lowerneck -6.16739 -10.9818 3.44156
upperneck -29.4015 -11.6615 19.5143
head -7.01803 -8.45758 6.43993
rclavicle -3.49861e-014 -1.59028e-015
rhumerus 62.2606 1.93425 -38.8699
rradius 20.6761
rwrist -13.9403
rhand -41.552 -8.00715
rfingers 7.12502
rthumb -14.4635 -37.4831
lclavicle -3.49861e-014 -1.59028e-015
lhumerus -11.3396 -29.6706 90.2214
lradius 44.0558
lwrist 30.8837
lhand -10.6641 -15.3328
lfingers 7.12502
lthumb 15.344 14.0779
rfemur -73.4137 -32.8598 31.5305
rtibia 68.4294
rfoot -22.1893 -5.17843
rtoes 13.2734
lfemur -63.4851 -13.5195 -28.6492
ltibia 47.5787
lfoot -0.721935 -20.012
ltoes -18.9346
